<?xml version="1.0" encoding="UTF-8"?>
<svg width="25px" height="25px" viewBox="0 0 25 25" version="1.1" xmlns="http://www.w3.org/2000/svg" xmlns:xlink="http://www.w3.org/1999/xlink">
    <!-- Generator: Sketch 55.1 (78136) - https://sketchapp.com -->
    <title>Icon_About_active</title>
    <desc>Created with Sketch.</desc>
    <g id="Page-1" stroke="none" stroke-width="1" fill="none" fill-rule="evenodd">
        <g id="FieldKitNaturalistApp-Specs" transform="translate(-811.000000, -918.000000)">
            <g id="Icon_About_active" transform="translate(811.000000, 918.000000)">
                <circle id="Oval" fill="#464C51" cx="12.5" cy="12.5" r="12.5"></circle>
                <path d="M15.0375,18.86875 L9.9765625,18.86875 C9.64375,18.86875 9.375,18.5546875 9.375,18.16875 C9.375,17.7828125 9.64375,17.46875 9.9765625,17.46875 L10.9453125,17.296875 L10.9453125,12.609375 L9.9765625,12.428125 C9.64375,12.428125 9.375,12.1140625 9.375,11.728125 C9.375,11.3421875 9.64375,11.028125 9.9765625,11.028125 L13.9046875,11.028125 C14.025,11.028125 14.0640625,10.978125 14.08125,10.9375 C14.0765625,10.9609375 14.0703125,10.9828125 14.0703125,11.046875 L14.0703125,17.296875 L15.0375,17.46875 C15.3703125,17.46875 15.640625,17.7828125 15.640625,18.16875 C15.640625,18.5546875 15.3703125,18.86875 15.0375,18.86875 L15.0375,18.86875 Z" id="Path" fill="#FFFFFF"></path>
                <path d="M10.9578125,6.25625 L12.4890625,6.25625 C12.5,6.25625 12.509375,6.25 12.5203125,6.25 C12.53125,6.25 12.540625,6.25625 12.5515625,6.25625 L14.0828125,6.25625 L14.0828125,7.725 C14.084375,7.759375 14.1015625,7.7875 14.1015625,7.8203125 C14.1015625,7.8546875 14.084375,7.8828125 14.0828125,7.915625 L14.0828125,9.38125 L12.571875,9.38125 C12.553125,9.3828125 12.5375,9.3921875 12.5203125,9.3921875 C12.5015625,9.3921875 12.4859375,9.3828125 12.46875,9.38125 L10.9578125,9.38125 L10.9578125,7.9140625 C10.9546875,7.88125 10.9375,7.8546875 10.9375,7.8203125 C10.9375,7.7875 10.9546875,7.759375 10.9578125,7.7265625 L10.9578125,6.25625 Z" id="Path" fill="#FFFFFF"></path>
            </g>
        </g>
    </g>
</svg>